   <svg
            width="158"
            height="49"
            viewBox="0 0 158 49"
            fill="none"
            xmlns="http://www.w3.org/2000/svg"
          >
            <path
              d="M78.5493 33.0782L76.4024 35.6682L74.2234 33.8552C72.3435 35.2365 70.1432 35.9272 67.6224 35.9272C64.3753 35.9272 61.7157 34.848 59.6436 32.6898C57.5928 30.5315 56.5674 27.6825 56.5674 24.1429C56.5674 20.6033 57.5928 17.7544 59.6436 15.5961C61.7157 13.4378 64.3753 12.3586 67.6224 12.3586C70.8695 12.3586 73.5185 13.4378 75.5692 15.5961C77.6414 17.7544 78.6775 20.6033 78.6775 24.1429C78.6775 26.9055 77.9725 29.3444 76.5626 31.4595L78.5493 33.0782ZM67.6224 15.9522C65.4007 15.9522 63.6917 16.7076 62.4955 18.2184C61.2992 19.7292 60.701 21.704 60.701 24.1429C60.701 26.5818 61.2992 28.5566 62.4955 30.0674C63.6917 31.5782 65.4007 32.3336 67.6224 32.3336C69.1178 32.3336 70.3568 32.0207 71.3395 31.3948L68.4556 28.9667L70.5704 26.3767L73.5825 28.9667C74.2875 27.6717 74.64 26.0638 74.64 24.1429C74.64 21.704 74.0311 19.7292 72.8135 18.2184C71.5958 16.7076 69.8655 15.9522 67.6224 15.9522Z"
              fill="#A8A8C1"
            />
            <path
              d="M94.4682 33.402C93.0369 34.9991 91.0929 35.7977 88.6363 35.7977C86.1796 35.7977 84.2249 34.9991 82.7723 33.402C81.341 31.8049 80.6254 29.8192 80.6254 27.4451C80.6254 25.0926 81.341 23.1177 82.7723 21.5206C84.2249 19.9019 86.1796 19.0925 88.6363 19.0925C91.0929 19.0925 93.0369 19.9019 94.4682 21.5206C95.9209 23.1177 96.6472 25.0926 96.6472 27.4451C96.6472 29.8192 95.9209 31.8049 94.4682 33.402ZM91.7765 23.6249C91.0289 22.6753 89.9821 22.2005 88.6363 22.2005C87.2904 22.2005 86.233 22.6753 85.464 23.6249C84.7163 24.5746 84.3424 25.848 84.3424 27.4451C84.3424 29.0638 84.7163 30.348 85.464 31.2977C86.233 32.2473 87.2904 32.7221 88.6363 32.7221C89.9821 32.7221 91.0289 32.2473 91.7765 31.2977C92.5456 30.348 92.9301 29.0638 92.9301 27.4451C92.9301 25.848 92.5456 24.5746 91.7765 23.6249Z"
              fill="#A8A8C1"
            />
            <path
              d="M113.016 19.3839L106.928 35.4739H103.563L97.4748 19.3839H101.16L105.229 31.0387L109.299 19.3839H113.016Z"
              fill="#A8A8C1"
            />
            <path
              d="M128.278 28.0278H117.607C117.821 29.6466 118.398 30.8336 119.338 31.589C120.299 32.3444 121.431 32.7221 122.734 32.7221C124.358 32.7221 125.96 32.3228 127.541 31.5243L127.797 34.5675C126.174 35.3876 124.4 35.7977 122.478 35.7977C119.743 35.7977 117.618 34.9991 116.101 33.402C114.606 31.8049 113.858 29.8084 113.858 27.4127C113.858 25.0818 114.542 23.1177 115.909 21.5206C117.297 19.9019 119.177 19.0925 121.549 19.0925C123.578 19.0925 125.244 19.7292 126.547 21.0026C127.85 22.2544 128.502 23.9271 128.502 26.0206C128.502 26.5386 128.427 27.2077 128.278 28.0278ZM121.613 22.2005C119.519 22.2005 118.237 23.312 117.767 25.535H124.785C124.785 24.6069 124.518 23.8192 123.984 23.1717C123.471 22.5242 122.681 22.2005 121.613 22.2005Z"
              fill="#A8A8C1"
            />
            <path
              d="M140.187 19.0278L139.482 22.6213H138.137C137.496 22.6213 136.876 22.794 136.278 23.1393C135.701 23.4846 135.285 23.8947 135.028 24.3695V35.4739H131.311V19.3839H134.612L134.804 21.3911C136.214 19.8155 137.741 19.0278 139.386 19.0278H140.187Z"
              fill="#A8A8C1"
            />
            <path
              d="M158 19.3839L148.099 43.3085H144.35L147.938 34.5027L141.305 19.3839H145.343L149.701 30.2293L153.963 19.3839H158Z"
              fill="#A8A8C1"
            />
            <path
              d="M30.3745 18.8176V41.1425L41.1892 34.8362V12.1067L30.3745 18.8176Z"
              fill="#33369F"
            />
            <path
              d="M21.1288 0L0 11.6683L11.5824 18.8176L21.0954 13.4219L30.3747 18.8176L41.1894 12.1067L21.1288 0Z"
              fill="#B7B9E7"
            />
            <path
              d="M0 11.6682L11.6158 18.8176L11.5157 29.8451L24.4666 36.927L24.6001 48.9999L0 34.9036V11.6682Z"
              fill="#7173CD"
            />
            <path
              d="M21.0952 13.4219L30.3745 18.8176C30.3745 18.8176 30.3998 29.9946 30.3998 29.826C31.0739 30.1532 21.2287 24.8878 21.2287 24.8878L21.0952 13.4219Z"
              fill="#7173CD"
            />
            <path
              d="M11.5161 29.8451L21.2293 24.8878L21.0958 13.4219L11.6162 18.8176L11.5161 29.8451Z"
              fill="#33369F"
            />
            <path
              d="M24.4671 36.9269L11.5161 29.845L21.2293 24.8877L33.6462 31.5649L24.4671 36.9269Z"
              fill="#B7B9E7"
            />
            <path
              d="M24.6003 49.0001L33.4791 42.9637L33.646 31.5652L24.4668 36.9272L24.6003 49.0001Z"
              fill="#33369F"
            />
            <path
              d="M1.1377 12.3765C4.60908 14.5348 8.14412 16.6613 11.6155 18.8196C14.7865 17.0322 17.9252 15.2095 21.0962 13.4222C24.2004 15.2095 27.2733 17.0303 30.3775 18.8177C33.5484 16.7943 36.7555 14.9087 39.9108 12.8992L21.0982 1.48389C14.4558 5.126 7.81344 8.73439 1.1377 12.3765Z"
              fill="#B7B9E7"
            />
          </svg>