<svg
              width="840"
              height="406"
              viewBox="0 0 840 406"
              fill="none"
              xmlns="http://www.w3.org/2000/svg"
            >
              <line
                x1="622.185"
                y1="19.6317"
                x2="132.193"
                y2="315.669"
                stroke="url(#paint0_linear_0_4228)"
              />
              <line
                x1="327.727"
                y1="0.427958"
                x2="13.061"
                y2="190.539"
                stroke="url(#paint1_linear_0_4228)"
              />
              <line
                x1="314.925"
                y1="90.0455"
                x2="0.258303"
                y2="280.156"
                stroke="url(#paint2_linear_0_4228)"
              />
              <line
                x1="565.995"
                y1="253.928"
                x2="171.057"
                y2="36.7118"
                stroke="#DEDFF4"
                stroke-dasharray="7 7"
              />
              <line
                x1="839.328"
                y1="230.243"
                x2="444.39"
                y2="13.0272"
                stroke="url(#paint3_linear_0_4228)"
                stroke-dasharray="7 7"
              />
              <line
                x1="749.711"
                y1="243.046"
                x2="489.386"
                y2="99.867"
                stroke="#DEDFF4"
              />
              <line
                x1="596.58"
                y1="109.249"
                x2="106.588"
                y2="405.286"
                stroke="url(#paint4_linear_0_4228)"
                stroke-dasharray="7 7"
              />
              <path
                d="M694.18 206.476L693.747 206.226L690.487 208.108C689.777 208.517 688.627 208.517 687.918 208.108L684.746 206.277L684.313 206.527L677.969 202.864L678.402 202.614L672.058 198.952L671.625 199.202L665.281 195.54L665.714 195.29L659.37 191.627L658.937 191.877L652.593 188.215L653.026 187.965L646.683 184.303L646.25 184.553L639.906 180.89L640.339 180.64L633.995 176.978L633.562 177.228L627.218 173.566L627.651 173.316L621.307 169.654L620.874 169.904L614.53 166.241L614.963 165.991L608.62 162.329L608.187 162.579L601.843 158.917L602.276 158.667L599.104 156.835C598.394 156.426 598.394 155.762 599.104 155.352L602.364 153.47L601.931 153.22L608.45 149.457L608.883 149.707L615.403 145.943L614.97 145.693L621.49 141.929L621.923 142.179L628.443 138.415L628.01 138.165L634.529 134.401L634.962 134.651L641.482 130.887L641.049 130.637L647.569 126.873L648.002 127.123L651.262 125.242C651.971 124.832 653.121 124.832 653.831 125.242L657.003 127.073L657.436 126.823L663.78 130.485L663.347 130.735L669.69 134.397L670.123 134.147L676.467 137.81L676.034 138.06L682.378 141.722L682.811 141.472L689.155 145.134L688.722 145.384L695.066 149.047L695.499 148.797L701.843 152.459L701.41 152.709L707.754 156.371L708.187 156.121L714.53 159.783L714.097 160.033L720.441 163.696L720.874 163.446L727.218 167.108L726.785 167.358L733.129 171.02L733.562 170.77L739.906 174.433L739.473 174.683L742.645 176.514C743.354 176.923 743.354 177.587 742.645 177.997L739.385 179.879L739.818 180.129L733.298 183.893L732.865 183.643L726.345 187.407L726.778 187.657L720.259 191.42L719.826 191.17L713.306 194.934L713.739 195.184L707.219 198.948L706.786 198.698L700.266 202.462L700.699 202.712L694.18 206.476Z"
                fill="#4548B0"
                fill-opacity="0.1"
                stroke="#5D64D2"
                stroke-dasharray="7 7"
              />
              <path
                d="M81.885 222.763L81.4564 223.021L74.7489 219.303L75.1775 219.046L68.4699 215.329L68.0413 215.586L61.3338 211.869L61.7624 211.611L55.0548 207.894L54.6262 208.151L47.9187 204.434L48.3473 204.176L41.6397 200.459L41.2111 200.716L34.5036 196.999L34.9321 196.742L28.2246 193.024L27.796 193.282L21.0885 189.564L21.517 189.307L18.1633 187.448C17.4468 187.051 17.4351 186.387 18.1373 185.965L21.0902 184.191L20.6528 183.949L26.5585 180.4L26.9958 180.642L32.9015 177.094L32.4641 176.852L38.3698 173.303L38.8071 173.545L44.7128 169.997L44.2754 169.755L50.1811 166.206L50.6184 166.449L56.5241 162.9L56.0867 162.658L61.9924 159.109L62.4297 159.352L68.3354 155.803L67.898 155.561L73.8037 152.012L74.241 152.255L80.1467 148.706L79.7093 148.464L85.615 144.915L86.0523 145.158L91.958 141.609L91.5206 141.367L97.4263 137.818L97.8636 138.061L100.816 136.286C101.519 135.865 102.669 135.844 103.385 136.242L106.739 138.1L107.168 137.843L113.875 141.56L113.447 141.818L120.154 145.535L120.583 145.278L127.29 148.995L126.862 149.252L133.569 152.97L133.998 152.712L140.705 156.43L140.277 156.687L146.984 160.405L147.413 160.147L154.12 163.865L153.692 164.122L160.399 167.839L160.828 167.582L167.536 171.299L167.107 171.557L170.461 173.416C171.177 173.813 171.189 174.477 170.487 174.898L167.534 176.673L167.971 176.915L162.066 180.464L161.628 180.221L155.723 183.77L156.16 184.012L150.254 187.56L149.817 187.318L143.911 190.867L144.349 191.109L138.443 194.657L138.006 194.415L132.1 197.964L132.537 198.206L126.632 201.754L126.194 201.512L120.289 205.06L120.726 205.303L114.82 208.851L114.383 208.609L108.477 212.157L108.915 212.4L103.009 215.948L102.572 215.706L96.666 219.254L97.1034 219.497L91.1977 223.045L90.7604 222.803L87.8076 224.577C87.1054 224.999 85.9553 225.019 85.2388 224.622L81.885 222.763Z"
                fill="#4548B0"
                fill-opacity="0.1"
                stroke="#5D64D2"
                stroke-dasharray="7 7"
              />
              <defs>
                <linearGradient
                  id="paint0_linear_0_4228"
                  x1="535.997"
                  y1="70.161"
                  x2="611.216"
                  y2="26.0675"
                  gradientUnits="userSpaceOnUse"
                >
                  <stop stop-color="#DEDFF4" />
                  <stop offset="1" stop-color="#DEDFF4" stop-opacity="0" />
                </linearGradient>
                <linearGradient
                  id="paint1_linear_0_4228"
                  x1="247.215"
                  y1="52.8612"
                  x2="322.255"
                  y2="7.18056"
                  gradientUnits="userSpaceOnUse"
                >
                  <stop stop-color="#DEDFF4" />
                  <stop offset="1" stop-color="#DEDFF4" stop-opacity="0" />
                </linearGradient>
                <linearGradient
                  id="paint2_linear_0_4228"
                  x1="234.412"
                  y1="142.479"
                  x2="309.452"
                  y2="96.7981"
                  gradientUnits="userSpaceOnUse"
                >
                  <stop stop-color="#DEDFF4" />
                  <stop offset="1" stop-color="#DEDFF4" stop-opacity="0" />
                </linearGradient>
                <linearGradient
                  id="paint3_linear_0_4228"
                  x1="426.611"
                  y1="-1.02326"
                  x2="494.636"
                  y2="37.0866"
                  gradientUnits="userSpaceOnUse"
                >
                  <stop stop-color="#DEDFF4" stop-opacity="0" />
                  <stop offset="0.44993" stop-color="#DEDFF4" />
                </linearGradient>
                <linearGradient
                  id="paint4_linear_0_4228"
                  x1="470.274"
                  y1="189.35"
                  x2="586.99"
                  y2="118"
                  gradientUnits="userSpaceOnUse"
                >
                  <stop stop-color="#DEDFF4" />
                  <stop offset="1" stop-color="#DEDFF4" stop-opacity="0" />
                </linearGradient>
              </defs>
            </svg>